<?xml version="1.0" standalone="no"?>
<!DOCTYPE svg PUBLIC "-//W3C//DTD SVG 20010904//EN"
 "http://www.w3.org/TR/2001/REC-SVG-20010904/DTD/svg10.dtd">
<svg version="1.0" xmlns="http://www.w3.org/2000/svg"
 width="100.000000pt" height="106.000000pt" viewBox="0 0 100.000000 106.000000"
 preserveAspectRatio="xMidYMid meet">

<g transform="translate(0.000000,106.000000) scale(0.100000,-0.100000)"
fill="#1d7b7f" stroke="none">
<path d="M128 846 c-17 -12 -18 -43 -18 -388 0 -440 -9 -408 113 -408 105 0
107 4 107 182 0 83 4 139 10 143 6 4 42 -25 80 -63 38 -38 76 -72 84 -75 10
-4 41 21 88 68 40 40 79 75 86 77 11 2 13 -27 12 -146 -1 -185 -1 -186 110
-186 118 0 110 -31 110 413 0 363 -1 377 -20 387 -25 13 -38 10 -74 -20 -45
-38 -74 -69 -156 -164 -78 -92 -134 -146 -150 -146 -12 0 -110 91 -110 101 0
4 -17 25 -37 47 -193 201 -199 206 -235 178z"/>
</g>
</svg>
